# xmcd
#
# Track frame offsets: 
#        150
#        20875
#        44222
#        59262
#        83615
#        102452
#        121577
#        146692
#        169110
#        183657
#        211545
#        257797
#        270252
#        287995
#        302290
#        329060
#
# Disc length: 4698 seconds
#
# Revision: 5
# Processed by: cddbd v1.5.2PL0 Copyright (c) Steve Scherf et al.
# Submitted via: ExactAudioCopyFreeDBPlugin 1.0
#
DISCID=ea125810
DTITLE=B. B. King - 1994 - The Very Best of B. B. King
DYEAR=1994
DGENRE=Blues
TTITLE0=Hummingbird
TTITLE1=How Blue Can You Get
TTITLE2=Caldonia
TTITLE3=The Thrill is Gone
TTITLE4=Into The Night
TTITLE5=I'm Moving On
TTITLE6=So Excited
TTITLE7=Midnight Believer
TTITLE8=Gambler's Blues (live)
TTITLE9=Sweet Sixteen (parts I and II)
TTITLE10=Lucille
TTITLE11=Broken Heart
TTITLE12=Everyday (I Have The Blues)
TTITLE13=Ain't Nobody Home
TTITLE14=Philadelphia
TTITLE15=The Blues Come Over Me
EXTD=
EXTT0=
EXTT1=
EXTT2=
EXTT3=
EXTT4=
EXTT5=
EXTT6=
EXTT7=
EXTT8=
EXTT9=
EXTT10=
EXTT11=
EXTT12=
EXTT13=
EXTT14=
EXTT15=
PLAYORDER=
